<svg id="bali" enable-background="new 0 0 300 300" height="512" viewBox="0 0 300 300" width="512" xmlns="http://www.w3.org/2000/svg"><g><path d="m103 201.092c-6.617 0-12 5.383-12 12s5.383 12 12 12 12-5.383 12-12-5.383-12-12-12zm0 16c-2.205 0-4-1.795-4-4s1.795-4 4-4 4 1.795 4 4-1.795 4-4 4z"/><path d="m255.397 83.461c2.362 0 4.276-1.915 4.276-4.276s-1.915-4.276-4.276-4.276c-2.362 0-4.277 1.915-4.277 4.276s1.915 4.276 4.277 4.276z"/><path d="m199.397 43.461c2.362 0 4.276-1.915 4.276-4.276s-1.915-4.276-4.276-4.276-4.277 1.915-4.277 4.276 1.915 4.276 4.277 4.276z"/><path d="m76.031 206.482c-1.562-1.562-4.094-1.562-5.656 0l-3.172 3.172-3.172-3.172c-1.563-1.562-4.094-1.562-5.656 0s-1.562 4.094 0 5.656l3.172 3.172-3.172 3.172c-1.562 1.562-1.562 4.094 0 5.656.781.781 1.805 1.172 2.828 1.172s2.047-.391 2.828-1.172l3.172-3.172 3.172 3.172c.781.781 1.805 1.172 2.828 1.172s2.047-.391 2.828-1.172c1.562-1.562 1.562-4.094 0-5.656l-3.172-3.172 3.172-3.172c1.563-1.562 1.563-4.093 0-5.656z"/><path d="m174.342 93.037c2.207.377 4.24-1.111 4.604-3.287l.776-4.658h6.557l.776 4.658c.326 1.955 2.02 3.342 3.941 3.342.217 0 .439-.018.662-.055 2.178-.363 3.65-2.424 3.287-4.604l-4-24c-.32-1.928-1.99-3.342-3.945-3.342h-8c-1.955 0-3.625 1.414-3.945 3.342l-4 24c-.364 2.18 1.109 4.241 3.287 4.604zm9.269-23.945 1.333 8h-3.89l1.333-8z"/><path d="m227 93.092c2.209 0 4-1.791 4-4v-24c0-2.209-1.791-4-4-4s-4 1.791-4 4v24c0 2.209 1.791 4 4 4z"/><path d="m199 65.092v24c0 2.209 1.791 4 4 4h12c2.209 0 4-1.791 4-4s-1.791-4-4-4h-8v-20c0-2.209-1.791-4-4-4s-4 1.791-4 4z"/><path d="m95 113.092c20.953 0 38-17.047 38-38s-17.047-38-38-38-38 17.047-38 38 17.047 38 38 38zm0-68c16.543 0 30 13.457 30 30s-13.457 30-30 30-30-13.457-30-30 13.457-30 30-30z"/><path d="m91.154 47.992-8 28c-.223.775-.203 1.6.051 2.365l8 24c.545 1.633 2.072 2.734 3.795 2.734s3.25-1.102 3.795-2.734l8-24c.254-.766.273-1.59.051-2.365l-8-28c-.49-1.717-2.061-2.9-3.846-2.9s-3.356 1.183-3.846 2.9zm1.395 33.1h4.901l-2.45 7.351zm5.148-8h-5.395l2.698-9.44z"/><path d="m147 93.092h10.865c5.037 0 9.135-4.098 9.135-9.135v-1.73c0-1.903-.588-3.67-1.588-5.135 1-1.465 1.588-3.231 1.588-5.135v-1.73c0-5.037-4.098-9.135-9.135-9.135h-10.865c-2.209 0-4 1.791-4 4v12 12c0 2.209 1.791 4 4 4zm12-9.135c0 .625-.51 1.135-1.135 1.135h-6.865v-4h6.865c.625 0 1.135.51 1.135 1.135zm-8-14.865h6.865c.625 0 1.135.51 1.135 1.135v1.73c0 .625-.51 1.135-1.135 1.135h-6.865z"/><path d="m268.789 165.514-14.641-7.32-7.434-18.588c-.285-.709-.768-1.324-1.391-1.77l-28-20c-.678-.484-1.49-.744-2.324-.744h-19.18l-27.244-11.676c-1.359-.586-2.922-.371-4.074.553l-19.721 15.795-11.246 7.496-26.229 3.748-38.825-11.649-7.691-3.846c-1.125-.562-2.453-.562-3.578 0l-24 12c-1.104.553-1.891 1.584-2.133 2.793l-2 10c-.244 1.221.092 2.482.912 3.42l28 32c.91 1.041 2.293 1.535 3.668 1.311l22.717-3.785 30.342 15.17 42.818 38.926 2.889 8.664-8.252 8.252c-1.348 1.348-1.559 3.461-.5 5.047l8 12c.764 1.146 2.029 1.781 3.33 1.781.604 0 1.215-.137 1.787-.422l16-8c1.355-.678 2.211-2.062 2.211-3.578v-10.344l6.828-6.828c.75-.75 1.172-1.768 1.172-2.828v-10l13.789-10.342 43.264-11.799c1.098-.299 2.016-1.053 2.525-2.07l3.578-7.156 15.244-11.434c1.008-.754 1.6-1.939 1.6-3.199v-8c0-1.516-.856-2.901-2.211-3.578zm-5.789 9.578-14.4 10.801c-.496.371-.9.855-1.178 1.41l-3.199 6.4-42.275 11.529c-.486.133-.943.357-1.348.66l-16 12c-1.008.754-1.6 1.939-1.6 3.199v10.344l-6.828 6.828c-.75.75-1.172 1.768-1.172 2.828v9.527l-10.631 5.316-4.223-6.334 7.682-7.682c1.072-1.07 1.445-2.656.967-4.094l-4-12c-.217-.65-.598-1.232-1.104-1.693l-44-40c-.271-.246-.574-.455-.902-.619l-32-16c-.756-.381-1.615-.514-2.447-.367l-21.801 3.633-25.232-28.838 1.23-6.146 20.461-10.23 6.211 3.105c.205.102.42.188.641.254l40 12c.555.168 1.137.211 1.715.127l28-4c.59-.084 1.156-.299 1.652-.631l12.279-8.205 18.129-14.502 25.797 11.055c.498.215 1.035.324 1.576.324h18.719l26.002 18.574 7.564 18.912c.365.908 1.049 1.652 1.926 2.092l13.789 6.895z"/><path d="m252.795 233.826c-.197-.588-.527-1.123-.967-1.562l-8-8c-.439-.439-.975-.77-1.562-.967l-12-4c-1.17-.385-2.457-.217-3.484.467l-12 8c-.998.664-1.645 1.742-1.762 2.934-.117 1.193.305 2.375 1.152 3.223l20 20c.75.75 1.768 1.172 2.828 1.172h8c.621 0 1.234-.145 1.789-.422l8-4c1.779-.891 2.635-2.955 2.006-4.844zm-8.738 13.266h-5.4l-15.377-15.379 6.312-4.207 9.248 3.082 6.664 6.664 2.604 7.814z"/></g></svg>